<?xml version="1.0" encoding="utf-8"?>
<!-- Generator: Adobe Illustrator 27.1.0, SVG Export Plug-In . SVG Version: 6.00 Build 0)  -->
<svg version="1.1" id="Layer_1" xmlns="http://www.w3.org/2000/svg" xmlns:xlink="http://www.w3.org/1999/xlink" x="0px" y="0px"
	 viewBox="0 0 256 256" style="enable-background:new 0 0 256 256;" xml:space="preserve">
<style type="text/css">
	.st0{fill:#F21449;}
	.st1{fill:#BC0642;}
	.st2{fill:#FFFFFF;}
</style>
<rect class="st0" width="256" height="256"/>
<path class="st1" d="M163.4,84.5V60.7c0-2.3-1.8-4.1-4.1-4.1h-3.8c-2.3,0-4.1,1.8-4.1,4.1v23.8c0,2.3-1.8,4.1-4.1,4.1h-22.2
	c-2.3,0-4.1-1.8-4.1-4.1V60.7c0-2.3-1.8-4.1-4.1-4.1h-3.8c-2.3,0-4.1,1.8-4.1,4.1v23.8c0,2.3-1.8,4.1-4.1,4.1H92.5
	c-2.3,0-4.1,1.8-4.1,4.1v40.5c0,19.4,13.1,35.8,30.9,40.7c1.8,0.5,3,2.1,3,3.9v11.6c0,2.3,1.8,4.1,4.1,4.1h0.4
	c2.3,0,4.1,1.8,4.1,4.1v11.5c0,2.3,1.8,4.1,4.1,4.1h3.8c2.3,0,4.1-1.8,4.1-4.1v-11.5c0-2.3,1.8-4.1,4.1-4.1h0.4
	c2.3,0,4.1-1.8,4.1-4.1v-11.7c0-1.8,1.3-3.4,3-3.9c17.7-5,30.7-21.4,30.7-40.7V92.7c0-2.3-1.8-4.1-4.1-4.1h-13.7
	C165.2,88.6,163.4,86.8,163.4,84.5z M173.3,129.2c0,19-15.4,34.4-34.4,34.4h-4.2c-19,0-34.4-15.4-34.4-34.4v-24.4
	c0-2.3,1.8-4.1,4.1-4.1h64.7c2.3,0,4.1,1.8,4.1,4.1V129.2z"/>
<path class="st2" d="M154.6,76.8V53c0-2.3-1.8-4.1-4.1-4.1h-3.8c-2.3,0-4.1,1.8-4.1,4.1v23.8c0,2.3-1.8,4.1-4.1,4.1h-22.2
	c-2.3,0-4.1-1.8-4.1-4.1V53c0-2.3-1.8-4.1-4.1-4.1h-3.8c-2.3,0-4.1,1.8-4.1,4.1v23.8c0,2.3-1.8,4.1-4.1,4.1H83.7
	c-2.3,0-4.1,1.8-4.1,4.1v40.5c0,19.4,13.1,35.8,30.9,40.7c1.8,0.5,3,2.1,3,3.9v11.6c0,2.3,1.8,4.1,4.1,4.1h0.4
	c2.3,0,4.1,1.8,4.1,4.1v11.5c0,2.3,1.8,4.1,4.1,4.1h3.8c2.3,0,4.1-1.8,4.1-4.1V190c0-2.3,1.8-4.1,4.1-4.1h0.4c2.3,0,4.1-1.8,4.1-4.1
	v-11.7c0-1.8,1.3-3.4,3-3.9c17.7-5,30.7-21.4,30.7-40.7V85c0-2.3-1.8-4.1-4.1-4.1h-13.7C156.4,80.9,154.6,79.1,154.6,76.8z
	 M164.5,121.4c0,19-15.4,34.4-34.4,34.4h-4.2c-19,0-34.4-15.4-34.4-34.4V97c0-2.3,1.8-4.1,4.1-4.1h64.7c2.3,0,4.1,1.8,4.1,4.1V121.4
	z"/>
</svg>
